Units are S.I. units (second, meters, Newtons, ...)
Angles are in degrees.
name walk
datarows 36
datacolumns 18
range 4.340000 4.515000
endheader
time root_joint_q1 root_joint_q2 root_joint_q3 root_joint_q4 root_joint_q5 root_joint_q6 root_joint_q7 exo_ha_l_q exo_hip_l exo_knee_l l_ankle_coupling l_foot exo_ha_r_q exo_hip_r exo_knee_r r_ankle_coupling r_foot
4.340000	1.730638	0.870745	0.065416	-0.000915	0.006325	-0.000965	0.999979	0.167931	-0.059592	-0.738781	0.791955	0.000000	0.022131	0.505429	-1.107865	0.613515	0.000000
4.345000	1.731590	0.869897	0.065946	-0.001090	0.007141	-0.001158	0.999973	0.169439	-0.057654	-0.745023	0.797716	0.000000	0.022109	0.508636	-1.114666	0.618629	0.000000
4.350000	1.732543	0.869049	0.066476	-0.001266	0.007957	-0.001350	0.999967	0.170948	-0.055716	-0.751264	0.803477	0.000000	0.022086	0.511843	-1.121467	0.623742	0.000000
4.355000	1.733442	0.868286	0.066858	-0.001472	0.008768	-0.001511	0.999959	0.172156	-0.053799	-0.757274	0.809007	0.000000	0.022332	0.514806	-1.127536	0.628358	0.000000
4.360000	1.734342	0.867523	0.067240	-0.001678	0.009578	-0.001671	0.999951	0.173364	-0.051882	-0.763284	0.814537	0.000000	0.022577	0.517768	-1.133605	0.632974	0.000000
4.365000	1.735186	0.866895	0.067348	-0.001896	0.010405	-0.001771	0.999942	0.174102	-0.049939	-0.769033	0.819792	0.000000	0.023225	0.520436	-1.138719	0.636962	0.000000
4.370000	1.736030	0.866266	0.067455	-0.002114	0.011231	-0.001871	0.999933	0.174841	-0.047997	-0.774783	0.825048	0.000000	0.023874	0.523105	-1.143833	0.640950	0.000000
4.375000	1.736801	0.865823	0.067207	-0.002343	0.012091	-0.001890	0.999922	0.174967	-0.045963	-0.780254	0.829971	0.000000	0.025038	0.525443	-1.147746	0.644138	0.000000
4.380000	1.737573	0.865380	0.066958	-0.002572	0.012950	-0.001909	0.999911	0.175094	-0.043930	-0.785725	0.834894	0.000000	0.026202	0.527780	-1.151659	0.647327	0.000000
4.385000	1.738360	0.865157	0.066237	-0.002835	0.013860	-0.001818	0.999898	0.174370	-0.041932	-0.790830	0.839546	0.000000	0.028092	0.529575	-1.154136	0.649728	0.000000
4.390000	1.739146	0.864934	0.065516	-0.003097	0.014771	-0.001726	0.999885	0.173645	-0.039934	-0.795936	0.844199	0.000000	0.029983	0.531370	-1.156613	0.652129	0.000000
4.395000	1.740365	0.864904	0.064075	-0.003463	0.015741	-0.001460	0.999869	0.171544	-0.038707	-0.800415	0.849055	0.000000	0.033093	0.531886	-1.157569	0.654419	0.000000
4.400000	1.741583	0.864875	0.062634	-0.003830	0.016712	-0.001194	0.999852	0.169444	-0.037481	-0.804895	0.853911	0.000000	0.036203	0.532403	-1.158524	0.656709	0.000000
4.405000	1.744025	0.864866	0.060259	-0.004498	0.017718	-0.000690	0.999831	0.165258	-0.038461	-0.808482	0.860070	0.000000	0.041256	0.530353	-1.158257	0.660430	0.000000
4.410000	1.746467	0.864858	0.057884	-0.005166	0.018723	-0.000186	0.999811	0.161071	-0.039442	-0.812068	0.866228	0.000000	0.046308	0.528303	-1.157990	0.664151	0.000000
4.415000	1.751116	0.864405	0.054449	-0.006603	0.019664	0.000615	0.999783	0.153704	-0.044084	-0.815975	0.876155	0.000000	0.054502	0.522161	-1.157405	0.671552	0.000000
4.420000	1.755766	0.863953	0.051015	-0.008040	0.020604	0.001416	0.999754	0.146338	-0.048726	-0.819881	0.886082	0.000000	0.062695	0.516020	-1.156820	0.678952	0.000000
4.425000	1.758599	0.864707	0.048448	-0.004888	0.015742	0.001510	0.999846	0.134606	-0.048821	-0.822655	0.886399	0.000000	0.059817	0.496170	-1.145256	0.677439	0.000000
4.430000	1.761432	0.865461	0.045882	-0.001736	0.010880	0.001604	0.999938	0.122874	-0.048915	-0.825430	0.886715	0.000000	0.056940	0.476320	-1.133692	0.675927	0.000000
4.435000	1.764045	0.865382	0.043344	-0.000125	0.007671	0.001838	0.999962	0.108303	-0.041809	-0.831994	0.883541	0.000000	0.057393	0.462367	-1.126887	0.676595	0.000000
4.440000	1.766658	0.865304	0.040805	0.001486	0.004461	0.002072	0.999987	0.093733	-0.034704	-0.838557	0.880368	0.000000	0.057846	0.448413	-1.120082	0.677263	0.000000
4.445000	1.769230	0.865838	0.039027	0.001817	0.002919	0.002242	0.999991	0.084387	-0.025015	-0.846517	0.877020	0.000000	0.059926	0.437675	-1.111757	0.676524	0.000000
4.450000	1.771801	0.866373	0.037248	0.002149	0.001377	0.002411	0.999994	0.075040	-0.015326	-0.854476	0.873672	0.000000	0.062006	0.426938	-1.103431	0.675784	0.000000
4.455000	1.774410	0.867246	0.036013	0.001994	0.000739	0.002514	0.999995	0.069128	-0.005666	-0.862737	0.871208	0.000000	0.064324	0.418048	-1.094759	0.674653	0.000000
4.460000	1.777019	0.868119	0.034778	0.001839	0.000101	0.002617	0.999995	0.063217	0.003995	-0.870998	0.868744	0.000000	0.066642	0.409158	-1.086087	0.673521	0.000000
4.465000	1.779644	0.869138	0.033911	0.001602	-0.000124	0.002665	0.999995	0.059326	0.012925	-0.879163	0.867286	0.000000	0.068591	0.401274	-1.077625	0.672414	0.000000
4.470000	1.782269	0.870157	0.033044	0.001366	-0.000348	0.002712	0.999995	0.055435	0.021854	-0.887329	0.865829	0.000000	0.070541	0.393389	-1.069164	0.671307	0.000000
4.475000	1.784868	0.871215	0.032426	0.001178	-0.000411	0.002715	0.999996	0.052791	0.030120	-0.895336	0.865148	0.000000	0.072024	0.386076	-1.061056	0.670300	0.000000
4.480000	1.787466	0.872274	0.031809	0.000989	-0.000474	0.002718	0.999996	0.050147	0.038385	-0.903342	0.864467	0.000000	0.073507	0.378763	-1.052949	0.669293	0.000000
4.485000	1.790017	0.873314	0.031365	0.000862	-0.000486	0.002686	0.999996	0.048321	0.046218	-0.911227	0.864286	0.000000	0.074609	0.371809	-1.045198	0.668381	0.000000
4.490000	1.792567	0.874355	0.030921	0.000734	-0.000497	0.002655	0.999996	0.046494	0.054050	-0.919112	0.864105	0.000000	0.075711	0.364855	-1.037448	0.667468	0.000000
4.495000	1.795066	0.875352	0.030601	0.000651	-0.000499	0.002597	0.999996	0.045229	0.061637	-0.926920	0.864210	0.000000	0.076541	0.358155	-1.030017	0.666636	0.000000
4.500000	1.797566	0.876350	0.030281	0.000568	-0.000502	0.002539	0.999996	0.043965	0.069223	-0.934727	0.864314	0.000000	0.077372	0.351456	-1.022586	0.665805	0.000000
4.505000	1.800022	0.877296	0.030050	0.000514	-0.000507	0.002462	0.999996	0.043095	0.076677	-0.942478	0.864562	0.000000	0.078017	0.344946	-1.015430	0.665049	0.000000
4.510000	1.802479	0.878241	0.029819	0.000460	-0.000513	0.002385	0.999997	0.042225	0.084131	-0.950230	0.864810	0.000000	0.078662	0.338437	-1.008275	0.664293	0.000000
4.515000	1.804909	0.879133	0.029651	0.000425	-0.000525	0.002294	0.999997	0.041637	0.091504	-0.957927	0.865119	0.000000	0.079180	0.332067	-1.001353	0.663616	0.000000
